<svg xmlns="http://www.w3.org/2000/svg" baseProfile="full" version="1.1" style="fill: none; width: 1380px; height: 660px;" viewBox="294.5 54.5 671 551"><path d="" style="stroke-width: 15; stroke-linecap: round; stroke-linejoin: round; stroke: rgb(106, 106, 106); fill: none;"/><path d="M360,300 L360,300 L360,360 L300,330 " style="stroke-width: 1; stroke-linecap: round; stroke-linejoin: round; stroke: rgb(10, 10, 10); fill: rgb(10, 10, 10);"/><path d="M600,300 L600,300 L600,360 L660,360 L660,300 L600,300 M720,330 L720,330 L780,330 M540,330 L540,330 L480,330 M630,240 L630,240 L630,180 M690,270 L690,270 L720,240 M690,390 L690,390 L720,420 M570,390 L570,390 L540,420 M570,270 L570,270 L540,240 M630,420 L630,420 L630,480 M660,450 Q675,510 630,540 M600,510 Q585,570 630,600 M600,210 Q585,150 630,120 M660,150 Q675,90 630,60 M750,210 L750,210 L840,120 M510,450 L510,450 L420,540 M465,465 L465,465 L465,525 M795,135 L795,135 L795,195 M855,75 L855,75 L885,105 M855,105 L855,105 L885,75 M375,555 L375,555 L405,585 M405,555 L405,555 L375,585 M810,330 A15,15 0 0,1 825,315 A15,15 0 0,1 840,330 A15,15 0 0,1 825,345 A15,15 0 0,1 810,330 M450,330 A15,15 0 0,0 435,315 A15,15 0 0,0 420,330 A15,15 0 0,0 435,345 A15,15 0 0,0 450,330 M405,345 A30,30 0 0,0 435,375 M405,315 A30,30 0 0,1 435,285 M825,375 A30,30 0 0,0 855,345 M825,285 A30,30 0 0,1 855,315 M360,300 L360,300 L360,360 L300,330 Z M900,360 L900,360 L900,300 L960,330 Z " style="stroke-width: 11; stroke-linecap: round; stroke-linejoin: round; stroke: rgb(10, 10, 10); fill: none;"/></svg>